<svg width="63" height="63" viewBox="0 0 63 63" fill="none" xmlns="http://www.w3.org/2000/svg">
<path d="M57.75 43.9425V12.2588C57.75 9.10876 55.1775 6.77251 52.0537 7.03501H51.8963C46.3838 7.50751 38.01 10.3163 33.3375 13.2563L32.8912 13.545C32.13 14.0175 30.87 14.0175 30.1088 13.545L29.4525 13.1513C24.78 10.2375 16.4325 7.45501 10.92 7.00876C7.79625 6.74626 5.25 9.10876 5.25 12.2325V43.9425C5.25 46.4625 7.2975 48.825 9.8175 49.14L10.5788 49.245C16.275 50.0063 25.0688 52.8938 30.1088 55.65L30.2138 55.7025C30.9225 56.0963 32.0513 56.0963 32.7338 55.7025C37.7738 52.92 46.5938 50.0063 52.3163 49.245L53.1825 49.14C55.7025 48.825 57.75 46.4625 57.75 43.9425Z" stroke="#6562F3" stroke-width="3" stroke-linecap="round" stroke-linejoin="round"/>
<path d="M31.5 14.4113V53.7863" stroke="#6562F3" stroke-width="3" stroke-linecap="round" stroke-linejoin="round"/>
<path d="M20.3438 22.2863H14.4375" stroke="#6562F3" stroke-width="3" stroke-linecap="round" stroke-linejoin="round"/>
<path d="M22.3125 30.1613H14.4375" stroke="#6562F3" stroke-width="3" stroke-linecap="round" stroke-linejoin="round"/>
</svg>
