<svg width="16" height="15" viewBox="0 0 16 15" fill="none" xmlns="http://www.w3.org/2000/svg">
<path d="M15.254 0.0743934C15.1626 -0.00197463 15.0362 -0.0212196 14.9262 0.0244422L0.196953 6.10824C0.0765202 6.15847 -0.00138878 6.27675 1.87592e-05 6.40723C0.00142629 6.53771 0.0818688 6.65428 0.203357 6.70189L4.25837 8.27664C4.35799 8.31547 4.47043 8.30202 4.55808 8.24077L9.93744 4.41502C10.0741 4.31625 10.2639 4.34033 10.3715 4.47009C10.4791 4.59985 10.4677 4.79085 10.3454 4.90685L5.86257 9.22635C5.79996 9.2867 5.76459 9.36993 5.76459 9.45689V13.7687C5.76501 13.913 5.86186 14.0392 6.00113 14.0769C6.14039 14.1146 6.28767 14.0545 6.3608 13.9301L8.38895 10.4559C8.43297 10.381 8.52855 10.3546 8.60476 10.3964L12.3357 12.4456C12.4243 12.4945 12.5308 12.4986 12.6229 12.4567C12.7149 12.4148 12.7818 12.3319 12.8032 12.233L15.3648 0.385628C15.3872 0.269455 15.3448 0.150274 15.254 0.0743934Z" fill="#F46F4C"/>
</svg>
