<svg width="17" height="17" viewBox="0 0 17 17" fill="none" xmlns="http://www.w3.org/2000/svg">
<path fill-rule="evenodd" clip-rule="evenodd" d="M8.9899 1.29735L11.222 5.71944L15.518 6.14504C15.7268 6.1624 15.9065 6.29964 15.9781 6.49657C16.0498 6.69349 16.0004 6.9141 15.8515 7.06162L12.316 10.5658L13.6268 15.3274C13.6816 15.5337 13.6103 15.753 13.4446 15.8876C13.2789 16.0222 13.0497 16.0471 12.859 15.9512L8.50359 13.7945L4.15421 15.9485C3.96351 16.0444 3.73429 16.0195 3.56862 15.8849C3.40294 15.7503 3.33161 15.5311 3.3864 15.3248L4.69721 10.5631L1.159 7.05895C1.01017 6.91144 0.96073 6.69082 1.03239 6.4939C1.10405 6.29698 1.28371 6.15973 1.49255 6.14237L5.78856 5.71678L8.01729 1.29735C8.11074 1.11482 8.29853 1 8.50359 1C8.70865 1 8.89644 1.11482 8.9899 1.29735Z" stroke="#9A9A9A" stroke-width="1.5"/>
</svg>
