<svg width="40" height="40" viewBox="0 0 40 40" fill="none" xmlns="http://www.w3.org/2000/svg">
<path d="M22.8834 5.85039L25.8168 11.7171C26.2168 12.5337 27.2834 13.3171 28.1834 13.4671L33.5001 14.3504C36.9001 14.9171 37.7001 17.3837 35.2501 19.8171L31.1168 23.9504C30.4168 24.6504 30.0334 26.0004 30.2501 26.9671L31.4334 32.0837C32.3668 36.1337 30.2168 37.7004 26.6334 35.5837L21.6501 32.6337C20.7501 32.1004 19.2668 32.1004 18.3501 32.6337L13.3668 35.5837C9.80009 37.7004 7.63343 36.1171 8.56676 32.0837L9.75009 26.9671C9.96676 26.0004 9.58343 24.6504 8.88343 23.9504L4.75009 19.8171C2.31676 17.3837 3.10009 14.9171 6.50009 14.3504L11.8168 13.4671C12.7001 13.3171 13.7668 12.5337 14.1668 11.7171L17.1001 5.85039C18.7001 2.66706 21.3001 2.66706 22.8834 5.85039Z" fill="#F46F4C" stroke="#F46F4C" stroke-width="1.5" stroke-linecap="round" stroke-linejoin="round"/>
</svg>
