<svg width="44" height="44" viewBox="0 0 44 44" fill="none" xmlns="http://www.w3.org/2000/svg">
<g clip-path="url(#clip0_163_3806)">
<path d="M22 44C34.1503 44 44 34.1503 44 22C44 9.84974 34.1503 0 22 0C9.84974 0 0 9.84974 0 22C0 34.1503 9.84974 44 22 44Z" fill="#E6EDF0"/>
<mask id="mask0_163_3806" style="mask-type:alpha" maskUnits="userSpaceOnUse" x="0" y="0" width="44" height="44">
<path d="M22 44C34.1503 44 44 34.1503 44 22C44 9.84974 34.1503 0 22 0C9.84974 0 0 9.84974 0 22C0 34.1503 9.84974 44 22 44Z" fill="#A3A3B5"/>
</mask>
<g mask="url(#mask0_163_3806)">
<path d="M4.8125 44.6875C5.5931 37.2105 8.44339 30.9915 15.5762 27.4342C16.9046 26.7732 16.543 26.3894 15.6335 25.6325C9.51039 20.5364 11.0036 11.1049 18.3405 8.27618C22.9776 6.48866 28.0407 8.14116 30.7048 12.3132C33.2829 16.3573 32.6455 21.6381 29.1579 24.9857C28.5671 25.5543 27.9261 26.0696 27.1562 26.7413C34.9909 30.2559 38.3962 36.6241 39.1875 44.6875C27.7291 44.6875 16.2709 44.6875 4.8125 44.6875Z" fill="white"/>
</g>
</g>
<defs>
<clipPath id="clip0_163_3806">
<rect width="44" height="44" fill="white"/>
</clipPath>
</defs>
</svg>
