<svg width="40" height="40" viewBox="0 0 40 40" fill="none" xmlns="http://www.w3.org/2000/svg">
<g clip-path="url(#clip0_65_526)">
<path d="M23.3905 17.6578L22.5 15.8539L21.6095 17.6578C21.5423 17.7941 21.443 17.9119 21.32 18.0013C21.1971 18.0906 21.0543 18.1487 20.9039 18.1705L18.9142 18.4598L20.354 19.8633C20.4628 19.9695 20.5442 20.1005 20.5912 20.2451C20.6382 20.3897 20.6494 20.5435 20.6238 20.6934L20.2838 22.6752L22.0636 21.7395C22.1982 21.669 22.348 21.6321 22.5 21.6321C22.652 21.6321 22.8017 21.669 22.9364 21.7395L24.7162 22.6752L24.3762 20.6934C24.3506 20.5435 24.3617 20.3897 24.4087 20.2451C24.4557 20.1005 24.5371 19.9695 24.6459 19.8633L26.0858 18.4598L24.096 18.1705C23.9456 18.1486 23.8028 18.0906 23.6799 18.0013C23.557 17.9119 23.4577 17.794 23.3905 17.6578Z" fill="#00BBD5"/>
<path d="M22.5 10.3125C20.7076 10.3125 18.9555 10.844 17.4651 11.8398C15.9748 12.8356 14.8133 14.251 14.1273 15.9069C13.4414 17.5629 13.262 19.3851 13.6116 21.143C13.9613 22.901 14.8244 24.5157 16.0918 25.7832C17.3593 27.0506 18.974 27.9137 20.732 28.2634C22.4899 28.613 24.3121 28.4336 25.9681 27.7477C27.624 27.0617 29.0394 25.9002 30.0352 24.4099C31.031 22.9195 31.5625 21.1674 31.5625 19.375C31.5597 16.9723 30.6041 14.6688 28.9051 12.9699C27.2062 11.2709 24.9027 10.3153 22.5 10.3125ZM28.7549 18.4766L26.3074 20.8618L26.8854 24.2303C26.9147 24.4027 26.8952 24.5799 26.8292 24.7418C26.7632 24.9037 26.6533 25.044 26.5119 25.1468C26.3704 25.2496 26.2031 25.3108 26.0287 25.3236C25.8543 25.3364 25.6798 25.3002 25.5249 25.2191L22.5 23.6285L19.4748 25.2191C19.3199 25.3002 19.1454 25.3364 18.9711 25.3236C18.7967 25.3108 18.6294 25.2495 18.488 25.1467C18.3465 25.0439 18.2367 24.9037 18.1707 24.7418C18.1047 24.5798 18.0853 24.4027 18.1146 24.2304L18.6923 20.8618L16.2451 18.4766C16.1201 18.3544 16.0317 18.1997 15.9899 18.0299C15.9481 17.8602 15.9546 17.6821 16.0086 17.5158C16.0626 17.3496 16.162 17.2017 16.2955 17.0889C16.4291 16.9761 16.5915 16.9029 16.7645 16.8774L20.1465 16.3858L21.6595 13.3209C21.7371 13.1643 21.8569 13.0325 22.0054 12.9403C22.1539 12.8482 22.3252 12.7993 22.5 12.7993C22.6747 12.7993 22.846 12.8482 22.9945 12.9403C23.1431 13.0325 23.2628 13.1643 23.3404 13.3209L24.8535 16.3858L28.2354 16.8774C28.4084 16.9029 28.5708 16.9761 28.7044 17.0889C28.8379 17.2017 28.9373 17.3496 28.9913 17.5158C29.0454 17.6821 29.0518 17.8601 29.01 18.0299C28.9683 18.1997 28.8799 18.3544 28.7549 18.4766Z" fill="#00BBD5"/>
<path d="M36.875 0.3125H8.125C7.37933 0.313312 6.66443 0.609889 6.13716 1.13716C5.60989 1.66443 5.31331 2.37933 5.3125 3.125V7.8125H3.125C2.37933 7.81331 1.66443 8.10989 1.13716 8.63716C0.609889 9.16443 0.313312 9.87933 0.3125 10.625V36.875C0.313312 37.6207 0.609889 38.3356 1.13716 38.8628C1.66443 39.3901 2.37933 39.6867 3.125 39.6875H29.375C30.1207 39.6867 30.8356 39.3901 31.3628 38.8628C31.8901 38.3356 32.1867 37.6207 32.1875 36.875V34.6875H36.875C37.6207 34.6867 38.3356 34.3901 38.8628 33.8628C39.3901 33.3356 39.6867 32.6207 39.6875 31.875V3.125C39.6867 2.37933 39.3901 1.66443 38.8628 1.13716C38.3356 0.609889 37.6207 0.313312 36.875 0.3125ZM8.125 2.1875H36.875C37.1236 2.18777 37.3619 2.28663 37.5376 2.46239C37.7134 2.63814 37.8122 2.87644 37.8125 3.125V5.3125H7.1875V3.125C7.18777 2.87644 7.28663 2.63814 7.46239 2.46239C7.63814 2.28663 7.87644 2.18777 8.125 2.1875ZM3.125 9.6875H5.3125V12.8125H2.1875V10.625C2.18777 10.3764 2.28663 10.1381 2.46239 9.96239C2.63814 9.78663 2.87644 9.68777 3.125 9.6875ZM30.3125 36.875C30.3122 37.1236 30.2134 37.3619 30.0376 37.5376C29.8619 37.7134 29.6236 37.8122 29.375 37.8125H3.125C2.87644 37.8122 2.63814 37.7134 2.46239 37.5376C2.28663 37.3619 2.18777 37.1236 2.1875 36.875V14.6875H5.3125V31.875C5.31331 32.6207 5.60989 33.3356 6.13716 33.8628C6.66443 34.3901 7.37933 34.6867 8.125 34.6875H30.3125V36.875ZM36.875 32.8125H8.125C7.87644 32.8122 7.63814 32.7134 7.46239 32.5376C7.28663 32.3619 7.18777 32.1236 7.1875 31.875V7.1875H37.8125V31.875C37.8122 32.1236 37.7134 32.3619 37.5376 32.5376C37.3619 32.7134 37.1236 32.8122 36.875 32.8125Z" fill="black"/>
<path d="M35.625 9.0625H31.25C31.0014 9.0625 30.7629 9.16127 30.5871 9.33709C30.4113 9.5129 30.3125 9.75136 30.3125 10C30.3125 10.2486 30.4113 10.4871 30.5871 10.6629C30.7629 10.8387 31.0014 10.9375 31.25 10.9375H35.625C35.8736 10.9375 36.1121 10.8387 36.2879 10.6629C36.4637 10.4871 36.5625 10.2486 36.5625 10C36.5625 9.75136 36.4637 9.5129 36.2879 9.33709C36.1121 9.16127 35.8736 9.0625 35.625 9.0625Z" fill="black"/>
<path d="M35.625 12.8125H33.125C32.8764 12.8125 32.6379 12.9113 32.4621 13.0871C32.2863 13.2629 32.1875 13.5014 32.1875 13.75C32.1875 13.9986 32.2863 14.2371 32.4621 14.4129C32.6379 14.5887 32.8764 14.6875 33.125 14.6875H35.625C35.8736 14.6875 36.1121 14.5887 36.2879 14.4129C36.4637 14.2371 36.5625 13.9986 36.5625 13.75C36.5625 13.5014 36.4637 13.2629 36.2879 13.0871C36.1121 12.9113 35.8736 12.8125 35.625 12.8125Z" fill="black"/>
</g>
<defs>
<clipPath id="clip0_65_526">
<rect width="40" height="40" fill="white"/>
</clipPath>
</defs>
</svg>
