<svg width="17" height="17" viewBox="0 0 17 17" fill="none" xmlns="http://www.w3.org/2000/svg">
<path d="M3 4C3 3.44772 3.44772 3 4 3H13C13.5523 3 14 3.44772 14 4V6C14 6.55228 13.5523 7 13 7H4C3.44771 7 3 6.55228 3 6V4Z" fill="#FFAE35"/>
<rect x="1" y="1" width="15.0094" height="15.0094" rx="1.5" stroke="black" stroke-width="1.5"/>
<path d="M9.50488 9.50531H13.5074" stroke="black" stroke-width="1.5"/>
<path d="M9.50488 11.5066H13.5074" stroke="black" stroke-width="1.5"/>
<path d="M9.50488 13.5078H12.0064" stroke="black" stroke-width="1.5"/>
<path d="M3.00098 9.50531H7.00348" stroke="black" stroke-width="1.5"/>
<path d="M3.00098 11.5066H7.00348" stroke="black" stroke-width="1.5"/>
<path d="M3.00098 13.5078H5.50254" stroke="black" stroke-width="1.5"/>
<rect x="3.00098" y="3.00122" width="11.0069" height="4.0025" rx="0.75" stroke="black" stroke-width="1.5"/>
</svg>
