<svg width="40" height="40" viewBox="0 0 40 40" fill="none" xmlns="http://www.w3.org/2000/svg">
<g clip-path="url(#clip0_5149_2292)">
<path d="M17.5 21.5625H13.75C13.2322 21.5625 12.8125 21.9822 12.8125 22.5V26.25C12.8125 26.7678 13.2322 27.1875 13.75 27.1875H17.5C18.0178 27.1875 18.4375 26.7678 18.4375 26.25V22.5C18.4375 21.9822 18.0178 21.5625 17.5 21.5625Z" fill="#F46F4C"/>
<path d="M25 21.5625H21.25C20.7322 21.5625 20.3125 21.9822 20.3125 22.5V26.25C20.3125 26.7678 20.7322 27.1875 21.25 27.1875H25C25.5178 27.1875 25.9375 26.7678 25.9375 26.25V22.5C25.9375 21.9822 25.5178 21.5625 25 21.5625Z" fill="#F46F4C"/>
<path d="M32.5 21.5625H28.75C28.2322 21.5625 27.8125 21.9822 27.8125 22.5V26.25C27.8125 26.7678 28.2322 27.1875 28.75 27.1875H32.5C33.0178 27.1875 33.4375 26.7678 33.4375 26.25V22.5C33.4375 21.9822 33.0178 21.5625 32.5 21.5625Z" fill="#F46F4C"/>
<path d="M17.5 14.0625H13.75C13.2322 14.0625 12.8125 14.4822 12.8125 15V18.75C12.8125 19.2678 13.2322 19.6875 13.75 19.6875H17.5C18.0178 19.6875 18.4375 19.2678 18.4375 18.75V15C18.4375 14.4822 18.0178 14.0625 17.5 14.0625Z" fill="#F46F4C"/>
<path d="M25 14.0625H21.25C20.7322 14.0625 20.3125 14.4822 20.3125 15V18.75C20.3125 19.2678 20.7322 19.6875 21.25 19.6875H25C25.5178 19.6875 25.9375 19.2678 25.9375 18.75V15C25.9375 14.4822 25.5178 14.0625 25 14.0625Z" fill="#F46F4C"/>
<path d="M32.5 14.0625H28.75C28.2322 14.0625 27.8125 14.4822 27.8125 15V18.75C27.8125 19.2678 28.2322 19.6875 28.75 19.6875H32.5C33.0178 19.6875 33.4375 19.2678 33.4375 18.75V15C33.4375 14.4822 33.0178 14.0625 32.5 14.0625Z" fill="#F46F4C"/>
<path d="M17.5 6.5625H13.75C13.2322 6.5625 12.8125 6.98223 12.8125 7.5V11.25C12.8125 11.7678 13.2322 12.1875 13.75 12.1875H17.5C18.0178 12.1875 18.4375 11.7678 18.4375 11.25V7.5C18.4375 6.98223 18.0178 6.5625 17.5 6.5625Z" fill="#F46F4C"/>
<path d="M25 6.5625H21.25C20.7322 6.5625 20.3125 6.98223 20.3125 7.5V11.25C20.3125 11.7678 20.7322 12.1875 21.25 12.1875H25C25.5178 12.1875 25.9375 11.7678 25.9375 11.25V7.5C25.9375 6.98223 25.5178 6.5625 25 6.5625Z" fill="#F46F4C"/>
<path d="M32.5 6.5625H28.75C28.2322 6.5625 27.8125 6.98223 27.8125 7.5V11.25C27.8125 11.7678 28.2322 12.1875 28.75 12.1875H32.5C33.0178 12.1875 33.4375 11.7678 33.4375 11.25V7.5C33.4375 6.98223 33.0178 6.5625 32.5 6.5625Z" fill="#F46F4C"/>
<path d="M37.5 0.3125H8.75C8.17005 0.313201 7.61406 0.543895 7.20398 0.953978C6.79389 1.36406 6.5632 1.92005 6.5625 2.5V6.5625H2.5C1.92005 6.5632 1.36406 6.79389 0.953978 7.20398C0.543895 7.61406 0.313201 8.17005 0.3125 8.75V37.5C0.313201 38.0799 0.543895 38.6359 0.953978 39.046C1.36406 39.4561 1.92005 39.6868 2.5 39.6875H31.25C31.8299 39.6868 32.3859 39.4561 32.796 39.046C33.2061 38.6359 33.4368 38.0799 33.4375 37.5V33.4375H37.5C38.0799 33.4368 38.6359 33.2061 39.046 32.796C39.4561 32.3859 39.6868 31.8299 39.6875 31.25V2.5C39.6868 1.92005 39.4561 1.36406 39.046 0.953978C38.6359 0.543895 38.0799 0.313201 37.5 0.3125ZM31.5625 37.5C31.5623 37.5828 31.5294 37.6622 31.4708 37.7208C31.4122 37.7794 31.3328 37.8123 31.25 37.8125H2.5C2.41715 37.8124 2.33773 37.7794 2.27915 37.7209C2.22057 37.6623 2.18761 37.5828 2.1875 37.5V8.75C2.18761 8.66715 2.22057 8.58773 2.27915 8.52915C2.33773 8.47057 2.41715 8.43761 2.5 8.4375H6.5625V31.25C6.5632 31.8299 6.79389 32.3859 7.20398 32.796C7.61406 33.2061 8.17005 33.4368 8.75 33.4375H31.5625V37.5ZM37.8125 31.25C37.8123 31.3328 37.7794 31.4122 37.7208 31.4708C37.6622 31.5294 37.5828 31.5623 37.5 31.5625H8.75C8.66715 31.5624 8.58773 31.5294 8.52915 31.4709C8.47057 31.4123 8.43761 31.3328 8.4375 31.25V2.5C8.43761 2.41715 8.47057 2.33773 8.52915 2.27915C8.58773 2.22057 8.66715 2.18761 8.75 2.1875H37.5C37.5828 2.18767 37.6622 2.22064 37.7208 2.27921C37.7794 2.33778 37.8123 2.41717 37.8125 2.5V31.25Z" fill="black"/>
</g>
<defs>
<clipPath id="clip0_5149_2292">
<rect width="40" height="40" fill="white"/>
</clipPath>
</defs>
</svg>
