<svg width="14" height="17" viewBox="0 0 14 17" fill="none" xmlns="http://www.w3.org/2000/svg">
<path d="M1 1H3V16H1V1Z" fill="#F46F4C"/>
<path d="M6 5C6 4.44772 6.44772 4 7 4H9C9.55228 4 10 4.44772 10 5V6C10 6.55228 9.55228 7 9 7H7C6.44772 7 6 6.55228 6 6V5Z" fill="#F46F4C"/>
<path fill-rule="evenodd" clip-rule="evenodd" d="M13.0072 15.6758C13.0072 16.0443 12.7086 16.3429 12.3401 16.3429H3.00098V1H12.3401C12.7086 1 13.0072 1.29866 13.0072 1.66708V15.6758Z" stroke="black"/>
<path fill-rule="evenodd" clip-rule="evenodd" d="M10.3394 6.67018C10.3394 6.85439 10.1901 7.00372 10.0059 7.00372H6.67046C6.48625 7.00372 6.33691 6.85439 6.33691 6.67018V4.66893C6.33691 4.48472 6.48625 4.33539 6.67046 4.33539H10.0059C10.1901 4.33539 10.3394 4.48472 10.3394 4.66893V6.67018Z" stroke="black"/>
<path d="M3.00125 1H1.66708C1.29866 1 1 1.29866 1 1.66708V15.6758C1 16.0443 1.29866 16.3429 1.66708 16.3429H3.00125" stroke="black"/>
</svg>
