<svg width="16" height="16" viewBox="0 0 16 16" fill="none" xmlns="http://www.w3.org/2000/svg">
<path fill-rule="evenodd" clip-rule="evenodd" d="M0 8.005C0 3.58396 3.58396 0 8.005 0C12.4241 0.00477955 16.0052 3.58594 16.01 8.005C16.01 12.426 12.426 16.01 8.005 16.01C3.58396 16.01 0 12.426 0 8.005ZM1 8C1 11.866 4.13401 15 8 15C11.8641 14.9955 14.9955 11.8641 15 8C15 4.13401 11.866 1 8 1C4.13401 1 1 4.13401 1 8Z" fill="black"/>
<path d="M8.00484 9.18439C6.30881 9.19075 4.76602 10.1672 4.03436 11.6973C3.98512 11.8007 3.99236 11.9221 4.05356 12.0189C4.11476 12.1158 4.22135 12.1744 4.33589 12.1743H11.6738C11.7883 12.1744 11.8949 12.1158 11.9561 12.0189C12.0173 11.9221 12.0246 11.8007 11.9753 11.6973C11.2437 10.1672 9.70088 9.19075 8.00484 9.18439Z" fill="#36CB79"/>
<path d="M8.00525 8.67205C9.47893 8.67205 10.6736 7.4774 10.6736 6.00372C10.6736 4.53004 9.47893 3.33539 8.00525 3.33539C6.53157 3.33539 5.33691 4.53004 5.33691 6.00372C5.33691 7.4774 6.53157 8.67205 8.00525 8.67205Z" fill="#36CB79"/>
</svg>
