<svg width="24" height="24" viewBox="0 0 24 24" fill="none" xmlns="http://www.w3.org/2000/svg">
<g filter="url(#filter0_d_501_14700)">
<path fill-rule="evenodd" clip-rule="evenodd" d="M18.761 0.0693524C19.007 -0.0491711 19.2995 -0.0137488 19.5102 0.160076C19.6882 0.328247 19.7669 0.576421 19.7183 0.816486L16.3202 14.992C16.2205 15.4061 15.9275 15.7469 15.5331 15.9076C15.1386 16.0682 14.6909 16.0291 14.3302 15.8025L11.7406 14.1735L10.2777 15.6371C9.99326 15.9214 9.5656 16.0064 9.19404 15.8525C8.82248 15.6986 8.58015 15.3361 8.57999 14.934V12.1849L4.61818 9.6927C4.21734 9.44071 3.98194 8.99354 4.00109 8.52046C4.02023 8.04738 4.29101 7.6207 4.71091 7.40193L18.761 0.0693524ZM15.6088 3.37296C15.5603 3.31044 15.4746 3.29057 15.4036 3.32539L5.6028 8.43725C5.54989 8.46483 5.51575 8.51858 5.51327 8.5782C5.51079 8.63781 5.54035 8.69421 5.59079 8.72609L8.99959 10.8708C9.06901 10.9151 9.1604 10.9024 9.21505 10.8407L15.6037 3.58355C15.6551 3.52344 15.6573 3.43548 15.6088 3.37296ZM9.91349 14.1121V13.0221L10.5806 13.443L9.91349 14.1121ZM14.9944 14.561C15.0442 14.5408 15.0813 14.4979 15.0941 14.4457L17.643 3.76566C17.6612 3.69099 17.6261 3.61351 17.5579 3.57807C17.4897 3.54262 17.4061 3.55838 17.3555 3.61623L10.3945 11.5218C10.362 11.5582 10.3473 11.607 10.3544 11.6553C10.3614 11.7036 10.3891 11.7466 10.4305 11.7727L14.8426 14.5477C14.8881 14.5763 14.9446 14.5812 14.9944 14.561Z" fill="#9A9A9A"/>
</g>
<defs>
<filter id="filter0_d_501_14700" x="0" y="0" width="23.7324" height="24.0053" filterUnits="userSpaceOnUse" color-interpolation-filters="sRGB">
<feFlood flood-opacity="0" result="BackgroundImageFix"/>
<feColorMatrix in="SourceAlpha" type="matrix" values="0 0 0 0 0 0 0 0 0 0 0 0 0 0 0 0 0 0 127 0" result="hardAlpha"/>
<feOffset dy="4"/>
<feGaussianBlur stdDeviation="2"/>
<feComposite in2="hardAlpha" operator="out"/>
<feColorMatrix type="matrix" values="0 0 0 0 0 0 0 0 0 0 0 0 0 0 0 0 0 0 0.25 0"/>
<feBlend mode="normal" in2="BackgroundImageFix" result="effect1_dropShadow_501_14700"/>
<feBlend mode="normal" in="SourceGraphic" in2="effect1_dropShadow_501_14700" result="shape"/>
</filter>
</defs>
</svg>
