<svg width="16" height="16" viewBox="0 0 16 16" fill="none" xmlns="http://www.w3.org/2000/svg">
<path d="M15.4805 5.65798C15.3346 5.26595 14.9609 5.00548 14.5426 5.00424H10.482C10.3404 5.00434 10.2142 4.91501 10.1672 4.78143L8.70958 0.650184C8.56337 0.259165 8.18978 0 7.77232 0C7.35487 0 6.98127 0.259165 6.83507 0.650184L6.83174 0.660857L5.37749 4.78143C5.33056 4.91478 5.20466 5.00406 5.0633 5.00424H1.00143C0.580261 5.00392 0.20398 5.26736 0.0601813 5.66322C-0.0836178 6.05908 0.0358514 6.5026 0.359027 6.77267L3.81719 9.64113C3.92306 9.72899 3.96413 9.87285 3.92059 10.0034L2.46768 14.3601C2.3299 14.7734 2.47542 15.2284 2.8275 15.4851C3.17958 15.7417 3.65727 15.7411 4.00864 15.4834L7.57487 12.8685C7.69222 12.7825 7.85176 12.7825 7.96911 12.8685L11.534 15.4828C11.8852 15.7413 12.3635 15.7426 12.7161 15.4859C13.0687 15.2292 13.2144 14.7738 13.0763 14.3601L11.6234 10.0007C11.5799 9.87018 11.6209 9.72633 11.7268 9.63846L15.1916 6.766C15.5106 6.49369 15.6259 6.05136 15.4805 5.65798Z" fill="#F46F4C"/>
</svg>
