<svg width="17" height="16" viewBox="0 0 17 16" fill="none" xmlns="http://www.w3.org/2000/svg">
<path d="M16.254 1.07439C16.1626 0.998025 16.0362 0.97878 15.9262 1.02444L1.19695 7.10824C1.07652 7.15847 0.998611 7.27675 1.00002 7.40723C1.00143 7.53771 1.08187 7.65428 1.20336 7.70189L5.25837 9.27664C5.35799 9.31547 5.47043 9.30202 5.55808 9.24077L10.9374 5.41502C11.0741 5.31625 11.2639 5.34033 11.3715 5.47009C11.4791 5.59985 11.4677 5.79085 11.3454 5.90685L6.86257 10.2263C6.79996 10.2867 6.76459 10.3699 6.76459 10.4569V14.7687C6.76501 14.913 6.86186 15.0392 7.00113 15.0769C7.14039 15.1146 7.28767 15.0545 7.3608 14.9301L9.38895 11.4559C9.43297 11.381 9.52855 11.3546 9.60476 11.3964L13.3357 13.4456C13.4243 13.4945 13.5308 13.4986 13.6229 13.4567C13.7149 13.4148 13.7818 13.3319 13.8032 13.233L16.3648 1.38563C16.3872 1.26946 16.3448 1.15027 16.254 1.07439Z" fill="#FFAE35" stroke="black"/>
</svg>
