<svg width="17" height="16" viewBox="0 0 17 16" fill="none" xmlns="http://www.w3.org/2000/svg">
<rect x="3" y="4" width="4" height="4" rx="1" fill="#A67CFF"/>
<path fill-rule="evenodd" clip-rule="evenodd" d="M7.00348 7.33729C7.00348 7.5215 6.85414 7.67084 6.66993 7.67084H3.33452C3.15031 7.67084 3.00098 7.5215 3.00098 7.33729V4.00188C3.00098 3.81767 3.15031 3.66833 3.33452 3.66833H6.66993C6.85414 3.66833 7.00348 3.81767 7.00348 4.00188V7.33729Z" stroke="black"/>
<path d="M8.33789 3.66833H10.3391" stroke="black"/>
<path d="M8.33789 5.66956H10.3391" stroke="black"/>
<path d="M8.33789 7.67084H10.3391" stroke="black"/>
<path d="M3.00098 9.67206H10.3389" stroke="black"/>
<path d="M3.00098 11.6733H10.3389" stroke="black"/>
<path d="M14.3417 15.0087H3.00125C1.89599 15.0087 1 14.1128 1 13.0075V1.66708C1 1.29866 1.29866 1 1.66708 1H11.6733C12.0418 1 12.3404 1.29866 12.3404 1.66708V13.0075C12.3404 14.1128 13.2364 15.0087 14.3417 15.0087C15.4469 15.0087 16.3429 14.1128 16.3429 13.0075V3.00125" stroke="black"/>
<path d="M14.3418 3.00122V13.341" stroke="black"/>
</svg>
