<svg width="18" height="18" viewBox="0 0 18 18" fill="none" xmlns="http://www.w3.org/2000/svg">
<path d="M16.4805 6.65798C16.3346 6.26595 15.9609 6.00548 15.5426 6.00424H11.482C11.3404 6.00434 11.2142 5.91501 11.1672 5.78143L9.70958 1.65018C9.56337 1.25917 9.18978 1 8.77232 1C8.35487 1 7.98128 1.25917 7.83507 1.65018L7.83174 1.66086L6.37749 5.78143C6.33056 5.91478 6.20466 6.00406 6.0633 6.00424H2.00143C1.58026 6.00392 1.20398 6.26736 1.06018 6.66322C0.916382 7.05908 1.03585 7.5026 1.35903 7.77267L4.81719 10.6411C4.92306 10.729 4.96413 10.8728 4.92059 11.0034L3.46768 15.3601C3.3299 15.7734 3.47542 16.2284 3.8275 16.4851C4.17958 16.7417 4.65727 16.7411 5.00864 16.4834L8.57487 13.8685C8.69222 13.7825 8.85176 13.7825 8.96911 13.8685L12.534 16.4828C12.8852 16.7413 13.3635 16.7426 13.7161 16.4859C14.0687 16.2292 14.2144 15.7738 14.0763 15.3601L12.6234 11.0007C12.5799 10.8702 12.6209 10.7263 12.7268 10.6385L16.1916 7.766C16.5106 7.49369 16.6259 7.05136 16.4805 6.65798Z" fill="#A67CFF" stroke="black"/>
</svg>
