<svg width="40" height="40" viewBox="0 0 40 40" fill="none" xmlns="http://www.w3.org/2000/svg">
<g clip-path="url(#clip0_5149_2339)">
<path d="M23.5427 5.9375C23.7914 5.9375 24.0298 5.83873 24.2056 5.66291C24.3815 5.4871 24.4802 5.24864 24.4802 5C24.4802 4.75136 24.3815 4.5129 24.2056 4.33709C24.0298 4.16127 23.7914 4.0625 23.5427 4.0625H16.0427C15.7941 4.0625 15.5556 4.16127 15.3798 4.33709C15.204 4.5129 15.1052 4.75136 15.1052 5C15.1052 5.24864 15.204 5.4871 15.3798 5.66291C15.5556 5.83873 15.7941 5.9375 16.0427 5.9375H23.5427Z" fill="black"/>
<path d="M10.7302 10C10.7302 10.1231 10.7544 10.245 10.8015 10.3588C10.8487 10.4725 10.9177 10.5759 11.0048 10.663C11.0918 10.75 11.1952 10.8191 11.3089 10.8662C11.4227 10.9133 11.5446 10.9375 11.6677 10.9375H22.5008C22.7495 10.9375 22.9879 10.8387 23.1638 10.6629C23.3396 10.4871 23.4383 10.2486 23.4383 10C23.4383 9.75136 23.3396 9.5129 23.1638 9.33709C22.9879 9.16127 22.7495 9.0625 22.5008 9.0625H11.6677C11.5446 9.06248 11.4227 9.08672 11.3089 9.13382C11.1952 9.18093 11.0918 9.24998 11.0048 9.33704C10.9177 9.4241 10.8487 9.52746 10.8015 9.64121C10.7544 9.75496 10.7302 9.87688 10.7302 10Z" fill="black"/>
<path d="M11.6677 15.9375H19.3758C19.6245 15.9375 19.8629 15.8387 20.0388 15.6629C20.2146 15.4871 20.3133 15.2486 20.3133 15C20.3133 14.7514 20.2146 14.5129 20.0388 14.3371C19.8629 14.1613 19.6245 14.0625 19.3758 14.0625H11.6677C11.4191 14.0625 11.1806 14.1613 11.0048 14.3371C10.829 14.5129 10.7302 14.7514 10.7302 15C10.7302 15.2486 10.829 15.4871 11.0048 15.6629C11.1806 15.8387 11.4191 15.9375 11.6677 15.9375Z" fill="black"/>
<path d="M11.9802 19.0625C11.7316 19.0625 11.4931 19.1613 11.3173 19.3371C11.1415 19.5129 11.0427 19.7514 11.0427 20C11.0427 20.2486 11.1415 20.4871 11.3173 20.6629C11.4931 20.8387 11.7316 20.9375 11.9802 20.9375H18.7508C18.9995 20.9375 19.2379 20.8387 19.4138 20.6629C19.5896 20.4871 19.6883 20.2486 19.6883 20C19.6883 19.7514 19.5896 19.5129 19.4138 19.3371C19.2379 19.1613 18.9995 19.0625 18.7508 19.0625H11.9802Z" fill="black"/>
<path d="M11.9802 25.9375H21.2508C21.4995 25.9375 21.7379 25.8387 21.9138 25.6629C22.0896 25.4871 22.1883 25.2486 22.1883 25C22.1883 24.7514 22.0896 24.5129 21.9138 24.3371C21.7379 24.1613 21.4995 24.0625 21.2508 24.0625H11.9802C11.7316 24.0625 11.4931 24.1613 11.3173 24.3371C11.1415 24.5129 11.0427 24.7514 11.0427 25C11.0427 25.2486 11.1415 25.4871 11.3173 25.6629C11.4931 25.8387 11.7316 25.9375 11.9802 25.9375Z" fill="black"/>
<path d="M13.2302 30.9375H29.1677C29.4164 30.9375 29.6548 30.8387 29.8306 30.6629C30.0065 30.4871 30.1052 30.2486 30.1052 30C30.1052 29.7514 30.0065 29.5129 29.8306 29.3371C29.6548 29.1613 29.4164 29.0625 29.1677 29.0625H13.2302C12.9816 29.0625 12.7431 29.1613 12.5673 29.3371C12.3915 29.5129 12.2927 29.7514 12.2927 30C12.2927 30.2486 12.3915 30.4871 12.5673 30.6629C12.7431 30.8387 12.9816 30.9375 13.2302 30.9375Z" fill="black"/>
<path d="M0.566695 8.50189C1.98027 11.1621 1.98027 16.9256 1.98027 22.4997C1.97996 30.9436 1.97996 38.9191 6.51365 39.6747C6.56458 39.6832 6.61613 39.6875 6.66777 39.6875H28.3291C28.7065 39.687 29.0773 39.5888 29.4055 39.4025C29.7337 39.2163 30.0082 38.9482 30.2021 38.6245C30.396 38.3008 30.5029 37.9323 30.5123 37.5551C30.5217 37.1778 30.4333 36.8046 30.2557 36.4716C29.9765 35.9031 29.7633 35.3045 29.6203 34.6875H33.3267C33.705 34.686 34.0765 34.5866 34.405 34.399C34.7335 34.2113 35.0078 33.9419 35.2013 33.6168C35.3948 33.2917 35.5008 32.922 35.509 32.5438C35.5173 32.1656 35.4275 31.7917 35.2484 31.4585C34.8396 30.5964 34.5568 29.68 34.4086 28.7375C34.3633 28.493 34.2228 28.2765 34.0179 28.1356C33.813 27.9947 33.5605 27.9409 33.316 27.9862C33.0715 28.0314 32.855 28.1719 32.7141 28.3768C32.5732 28.5817 32.5194 28.8342 32.5647 29.0787C32.7439 30.2045 33.0876 31.2978 33.5849 32.3236C33.6151 32.371 33.6323 32.4255 33.6346 32.4816C33.6369 32.5378 33.6243 32.5935 33.5981 32.6432C33.5718 32.6929 33.5329 32.7347 33.4852 32.7645C33.4376 32.7942 33.3829 32.8108 33.3267 32.8125H11.7538C8.85496 32.2095 8.85496 24.3979 8.85527 17.4997C8.85527 11.4289 8.85527 5.69492 7.22227 2.6221C7.20017 2.57494 7.1905 2.52292 7.19418 2.47097C7.19787 2.41903 7.21479 2.36889 7.24333 2.32533C7.27187 2.28177 7.31108 2.24623 7.35723 2.22211C7.40339 2.19799 7.45494 2.18608 7.507 2.18752H29.0817C30.3088 2.44387 31.1194 4.04299 31.5582 7.07155C31.5938 7.3176 31.7257 7.53942 31.9249 7.68823C32.124 7.83703 32.3742 7.90062 32.6202 7.86501C32.8663 7.82939 33.0881 7.6975 33.2369 7.49833C33.3857 7.29917 33.4493 7.04905 33.4137 6.803C33.0444 4.25355 32.2186 0.808142 29.3219 0.325336C29.271 0.316803 29.2194 0.312515 29.1678 0.312517H7.507C7.13141 0.311037 6.76181 0.406635 6.43405 0.590041C6.10628 0.773447 5.83146 1.03844 5.63625 1.35931C5.44104 1.68019 5.33206 2.04607 5.31987 2.42146C5.30769 2.79685 5.39271 3.16903 5.5667 3.50189C5.85713 4.0771 6.07779 4.68495 6.224 5.31252H2.507C2.13141 5.31104 1.76181 5.40663 1.43405 5.59004C1.10628 5.77345 0.831465 6.03844 0.636255 6.35931C0.441044 6.68019 0.332061 7.04607 0.319874 7.42146C0.307686 7.79685 0.392709 8.16903 0.566695 8.50189ZM6.98027 17.4997C6.97996 25.9436 6.97996 33.9191 11.5137 34.6747C11.5646 34.6832 11.6161 34.6875 11.6678 34.6875H27.694C27.8766 35.6076 28.1793 36.4998 28.5944 37.341C28.6225 37.3881 28.6378 37.4419 28.6385 37.4968C28.6392 37.5517 28.6254 37.6058 28.5985 37.6537C28.5716 37.7015 28.5325 37.7414 28.4852 37.7693C28.4379 37.7972 28.3841 37.8121 28.3292 37.8125H6.75383C3.85496 37.2095 3.85496 29.3979 3.85527 22.4997C3.85527 16.4288 3.85527 10.6949 2.22227 7.62208C2.20017 7.57493 2.1905 7.52291 2.19419 7.47096C2.19788 7.41902 2.21479 7.36888 2.24333 7.32532C2.27187 7.28176 2.31108 7.24623 2.35724 7.22211C2.40339 7.19799 2.45495 7.18608 2.507 7.18752H6.57393C6.92669 10.6129 7.06241 14.0572 6.98027 17.4997Z" fill="black"/>
<path d="M38.3646 13.4351C37.6066 12.1894 36.5609 11.1437 35.3152 10.3857L29.7632 15.9378L32.8125 18.9871L38.3646 13.4351Z" fill="#36CB79"/>
<path d="M32.5378 21.9129C32.4508 21.9999 32.3474 22.069 32.2337 22.1161C32.12 22.1633 31.9981 22.1875 31.8749 22.1875H27.4999C27.3768 22.1876 27.2549 22.1633 27.1412 22.1162C27.0274 22.0691 26.9241 22.0001 26.837 21.913C26.7499 21.8259 26.6809 21.7226 26.6338 21.6088C26.5867 21.4951 26.5624 21.3732 26.5624 21.25V16.875C26.5625 16.7519 26.5867 16.63 26.6338 16.5163C26.681 16.4026 26.75 16.2992 26.8371 16.2122L33.5084 9.5409C31.5656 8.88436 29.458 8.9041 27.5278 9.59692C25.5977 10.2897 23.9586 11.6149 22.8769 13.3571C21.7952 15.0993 21.3344 17.1561 21.5694 19.1933C21.8045 21.2305 22.7216 23.1283 24.1716 24.5784C25.6217 26.0284 27.5195 26.9455 29.5567 27.1805C31.5939 27.4156 33.6507 26.9548 35.3929 25.8731C37.1351 24.7914 38.4602 23.1523 39.1531 21.2222C39.8459 19.292 39.8656 17.1843 39.2091 15.2416L32.5378 21.9129Z" fill="#36CB79"/>
<path d="M28.4375 20.3121H31.4869L28.4375 17.2627V20.3121Z" fill="#36CB79"/>
</g>
<defs>
<clipPath id="clip0_5149_2339">
<rect width="40" height="40" fill="white"/>
</clipPath>
</defs>
</svg>
