<svg width="40" height="40" viewBox="0 0 40 40" fill="none" xmlns="http://www.w3.org/2000/svg">
<path d="M15 5.9375H6.25C5.38706 5.9375 4.6875 6.63706 4.6875 7.5V25C4.6875 25.8629 5.38706 26.5625 6.25 26.5625H15C15.8629 26.5625 16.5625 25.8629 16.5625 25V7.5C16.5625 6.63706 15.8629 5.9375 15 5.9375Z" fill="#A67CFF"/>
<path d="M36.875 1.56244H26.8576C24.4636 1.5939 22.1119 2.19889 19.9999 3.3267C17.91 2.14329 15.5439 1.53457 13.1424 1.56244H3.125C2.37933 1.56325 1.66443 1.85983 1.13716 2.3871C0.609889 2.91437 0.313312 3.62927 0.3125 4.37494V33.7499C0.313312 34.4956 0.609889 35.2105 1.13716 35.7378C1.66443 36.265 2.37933 36.5616 3.125 36.5624H13.2288C15.4441 36.5628 17.6178 37.1646 19.5178 38.3038C19.6634 38.3912 19.8301 38.4374 20 38.4374C20.1699 38.4374 20.3366 38.3912 20.4822 38.3038C22.3822 37.1646 24.5559 36.5628 26.7712 36.5624H36.875C37.6207 36.5616 38.3356 36.265 38.8628 35.7378C39.3901 35.2105 39.6867 34.4956 39.6875 33.7499V4.37494C39.6867 3.62927 39.3901 2.91437 38.8628 2.3871C38.3356 1.85983 37.6207 1.56325 36.875 1.56244ZM26.8576 3.43744H36.875C37.1236 3.43771 37.3619 3.53657 37.5376 3.71233C37.7134 3.88808 37.8122 4.12638 37.8125 4.37494V28.1249C37.8122 28.3735 37.7134 28.6118 37.5376 28.7876C37.3619 28.9633 37.1236 29.0622 36.875 29.0624H26.7712C24.7588 29.0625 22.7697 29.4933 20.9375 30.3259V4.95416C22.7427 3.93556 24.785 3.41231 26.8576 3.43744ZM2.1875 4.37494C2.18777 4.12638 2.28663 3.88808 2.46239 3.71233C2.63814 3.53657 2.87644 3.43771 3.125 3.43744H13.1424C15.2085 3.46342 17.2384 3.98348 19.0625 4.95416V30.3259C17.2303 29.4933 15.2412 29.0625 13.2288 29.0624H3.125C2.87644 29.0622 2.63814 28.9633 2.46239 28.7876C2.28663 28.6118 2.18777 28.3735 2.1875 28.1249V4.37494ZM3.125 34.6874C2.87644 34.6872 2.63814 34.5883 2.46239 34.4126C2.28663 34.2368 2.18777 33.9985 2.1875 33.7499V30.7647C2.48772 30.8758 2.80488 30.9343 3.125 30.9374H13.2288C15.267 30.9398 17.2724 31.4516 19.0625 32.4264V35.9555C17.2307 35.1213 15.2415 34.689 13.2288 34.6874H3.125ZM36.875 34.6874H26.7712C24.7585 34.689 22.7693 35.1213 20.9375 35.9555V32.4264C22.7276 31.4516 24.733 30.9398 26.7712 30.9374H36.875C37.1951 30.9343 37.5123 30.8758 37.8125 30.7647V33.7499C37.8122 33.9985 37.7134 34.2368 37.5376 34.4126C37.3619 34.5883 37.1236 34.6872 36.875 34.6874Z" fill="black"/>
<path d="M24.375 15.6875H34.375C34.6236 15.6875 34.8621 15.5887 35.0379 15.4129C35.2137 15.2371 35.3125 14.9986 35.3125 14.75C35.3125 14.5014 35.2137 14.2629 35.0379 14.0871C34.8621 13.9113 34.6236 13.8125 34.375 13.8125H24.375C24.1264 13.8125 23.8879 13.9113 23.7121 14.0871C23.5363 14.2629 23.4375 14.5014 23.4375 14.75C23.4375 14.9986 23.5363 15.2371 23.7121 15.4129C23.8879 15.5887 24.1264 15.6875 24.375 15.6875Z" fill="black"/>
<path d="M24.375 19.6875H34.375C34.6236 19.6875 34.8621 19.5887 35.0379 19.4129C35.2137 19.2371 35.3125 18.9986 35.3125 18.75C35.3125 18.5014 35.2137 18.2629 35.0379 18.0871C34.8621 17.9113 34.6236 17.8125 34.375 17.8125H24.375C24.1264 17.8125 23.8879 17.9113 23.7121 18.0871C23.5363 18.2629 23.4375 18.5014 23.4375 18.75C23.4375 18.9986 23.5363 19.2371 23.7121 19.4129C23.8879 19.5887 24.1264 19.6875 24.375 19.6875Z" fill="black"/>
</svg>
