<svg width="63" height="63" viewBox="0 0 63 63" fill="none" xmlns="http://www.w3.org/2000/svg">
<path d="M13.125 26.25H18.375C23.625 26.25 26.25 23.625 26.25 18.375V13.125C26.25 7.875 23.625 5.25 18.375 5.25H13.125C7.875 5.25 5.25 7.875 5.25 13.125V18.375C5.25 23.625 7.875 26.25 13.125 26.25Z" stroke="#35AAFF" stroke-width="3" stroke-miterlimit="10" stroke-linecap="round" stroke-linejoin="round"/>
<path d="M44.625 26.25H49.875C55.125 26.25 57.75 23.625 57.75 18.375V13.125C57.75 7.875 55.125 5.25 49.875 5.25H44.625C39.375 5.25 36.75 7.875 36.75 13.125V18.375C36.75 23.625 39.375 26.25 44.625 26.25Z" stroke="#35AAFF" stroke-width="3" stroke-miterlimit="10" stroke-linecap="round" stroke-linejoin="round"/>
<path d="M44.625 57.75H49.875C55.125 57.75 57.75 55.125 57.75 49.875V44.625C57.75 39.375 55.125 36.75 49.875 36.75H44.625C39.375 36.75 36.75 39.375 36.75 44.625V49.875C36.75 55.125 39.375 57.75 44.625 57.75Z" stroke="#35AAFF" stroke-width="3" stroke-miterlimit="10" stroke-linecap="round" stroke-linejoin="round"/>
<path d="M13.125 57.75H18.375C23.625 57.75 26.25 55.125 26.25 49.875V44.625C26.25 39.375 23.625 36.75 18.375 36.75H13.125C7.875 36.75 5.25 39.375 5.25 44.625V49.875C5.25 55.125 7.875 57.75 13.125 57.75Z" stroke="#35AAFF" stroke-width="3" stroke-miterlimit="10" stroke-linecap="round" stroke-linejoin="round"/>
</svg>
