<svg width="24" height="25" viewBox="0 0 24 25" fill="none" xmlns="http://www.w3.org/2000/svg">
<path d="M20.1 9.72043C18.29 9.72043 17.55 8.44042 18.45 6.87042C18.97 5.96042 18.66 4.80042 17.75 4.28042L16.02 3.29042C15.23 2.82042 14.21 3.10042 13.74 3.89042L13.63 4.08042C12.73 5.65042 11.25 5.65042 10.34 4.08042L10.23 3.89042C9.78 3.10042 8.76 2.82042 7.97 3.29042L6.24 4.28042C5.33 4.80042 5.02 5.97042 5.54 6.88042C6.45 8.44042 5.71 9.72043 3.9 9.72043C2.86 9.72043 2 10.5704 2 11.6204V13.3804C2 14.4204 2.85 15.2804 3.9 15.2804C5.71 15.2804 6.45 16.5604 5.54 18.1304C5.02 19.0404 5.33 20.2004 6.24 20.7204L7.97 21.7104C8.76 22.1804 9.78 21.9004 10.25 21.1104L10.36 20.9204C11.26 19.3504 12.74 19.3504 13.65 20.9204L13.76 21.1104C14.23 21.9004 15.25 22.1804 16.04 21.7104L17.77 20.7204C18.68 20.2004 18.99 19.0304 18.47 18.1304C17.56 16.5604 18.3 15.2804 20.11 15.2804C21.15 15.2804 22.01 14.4304 22.01 13.3804V11.6204C22 10.5804 21.15 9.72043 20.1 9.72043ZM12 15.7504C10.21 15.7504 8.75 14.2904 8.75 12.5004C8.75 10.7104 10.21 9.25042 12 9.25042C13.79 9.25042 15.25 10.7104 15.25 12.5004C15.25 14.2904 13.79 15.7504 12 15.7504Z" fill="#F46F4C"/>
</svg>
