<svg width="24" height="24" viewBox="0 0 24 24" fill="none" xmlns="http://www.w3.org/2000/svg">
<path d="M15.95 24H9.05C3.3 24 1 21.7 1 15.95V9.05C1 3.3 3.3 1 9.05 1H15.95C21.7 1 24 3.3 24 9.05V15.95C24 21.7 21.7 24 15.95 24Z" fill="#F46F4C"/>
<path d="M9.44466 7.58971C9.44466 7.18979 9.12472 6.86985 8.72479 6.86985H5.00551C4.60558 6.86985 4.28564 7.18979 4.28564 7.58971C4.28564 7.98963 4.60558 8.30957 5.00551 8.30957H8.72479C9.11672 8.30957 9.44466 7.98163 9.44466 7.58971Z" fill="white"/>
<path d="M15.4441 12.7967C15.4441 13.1967 15.764 13.5166 16.164 13.5166H19.8832C20.2832 13.5166 20.6031 13.1967 20.6031 12.7967C20.6031 12.3968 20.2832 12.0769 19.8832 12.0769H16.164C15.772 12.0769 15.4441 12.3968 15.4441 12.7967Z" fill="white"/>
<path d="M9.44466 18.0028C9.44466 17.6029 9.12472 17.2829 8.72479 17.2829H5.00551C4.60558 17.2829 4.28564 17.6029 4.28564 18.0028C4.28564 18.4027 4.60558 18.7227 5.00551 18.7227H8.72479C9.11672 18.7227 9.44466 18.4027 9.44466 18.0028Z" fill="white"/>
<path d="M10.9795 16.5152V19.4906C10.9795 19.8905 11.2994 20.2104 11.6994 20.2104C12.0993 20.2104 12.4192 19.8905 12.4192 19.4906V18.7227H19.8818C20.2817 18.7227 20.6016 18.4028 20.6016 18.0029C20.6016 17.6029 20.2817 17.283 19.8818 17.283H12.4192V16.5152C12.4192 16.1152 12.0993 15.7953 11.6994 15.7953C11.2994 15.7953 10.9795 16.1232 10.9795 16.5152Z" fill="white"/>
<path d="M10.9795 6.10061V9.07604C10.9795 9.47596 11.2994 9.7959 11.6994 9.7959C12.0993 9.7959 12.4192 9.47596 12.4192 9.07604V8.30818H19.8818C20.2817 8.30818 20.6016 7.98825 20.6016 7.58832C20.6016 7.1884 20.2817 6.86846 19.8818 6.86846H12.4192V6.10061C12.4192 5.70068 12.0993 5.38074 11.6994 5.38074C11.2994 5.38074 10.9795 5.70068 10.9795 6.10061Z" fill="white"/>
<path d="M12.4681 11.3076V12.0755H5.00551C4.60558 12.0755 4.28564 12.3954 4.28564 12.7954C4.28564 13.1953 4.60558 13.5152 5.00551 13.5152H12.4681V14.2831C12.4681 14.683 12.788 15.0029 13.1879 15.0029C13.5879 15.0029 13.9078 14.683 13.9078 14.2831V11.3076C13.9078 10.9077 13.5879 10.5878 13.1879 10.5878C12.788 10.5878 12.4681 10.9077 12.4681 11.3076Z" fill="white"/>
</svg>
