<svg width="36" height="36" viewBox="0 0 36 36" fill="none" xmlns="http://www.w3.org/2000/svg">
<path d="M20.5482 3.85039L23.4816 9.7171C23.8816 10.5337 24.9482 11.3171 25.8482 11.4671L31.1649 12.3504C34.5649 12.9171 35.3649 15.3837 32.9149 17.8171L28.7816 21.9504C28.0816 22.6504 27.6982 24.0004 27.9149 24.9671L29.0982 30.0837C30.0316 34.1337 27.8816 35.7004 24.2982 33.5837L19.3149 30.6337C18.4149 30.1004 16.9316 30.1004 16.0149 30.6337L11.0316 33.5837C7.46489 35.7004 5.29823 34.1171 6.23156 30.0837L7.41489 24.9671C7.63156 24.0004 7.24823 22.6504 6.54823 21.9504L2.41489 17.8171C-0.0184439 15.3837 0.764886 12.9171 4.16489 12.3504L9.4816 11.4671C10.3649 11.3171 11.4316 10.5337 11.8316 9.7171L14.7649 3.85039C16.3649 0.667058 18.9649 0.667058 20.5482 3.85039Z" fill="#F46F4C" stroke="#F46F4C" stroke-width="1.5" stroke-linecap="round" stroke-linejoin="round"/>
<path d="M23.665 10L20.665 4.00001C19.665 1.5 18.165 1 18.165 1V31C19.0817 30.4667 19.265 30.9667 20.165 31.5L24.963 34.2077C28.5464 36.3244 30.0984 34.05 29.165 30L28.165 26C27.9483 25.0333 27.665 24 28.165 23L31.165 20L33.665 17.5C35.665 15.5 34.565 12.5667 31.165 12L26.665 11.5C25.765 11.35 24.065 10.8166 23.665 10Z" fill="white" stroke="white" stroke-width="1.5" stroke-linecap="round" stroke-linejoin="round"/>
</svg>
